<svg viewBox="0 0 41.539 65.939" height="249.22" width="156.998" xmlns="http://www.w3.org/2000/svg"><g color="#000"><path style="-inkscape-font-specification:'Noto Sans Arabic UI Bold';-inkscape-stroke:none" d="M12.755 26.783c-1.319 0-2.456-.455-3.41-1.365-.91-.955-1.365-2.069-1.365-3.342 0-1.319.455-2.455 1.365-3.41.954-.955 2.091-1.433 3.41-1.433 1.273 0 2.365.478 3.274 1.433.91.955 1.364 2.091 1.364 3.41 0 1.273-.455 2.387-1.364 3.342-.91.91-2 1.365-3.274 1.365zM24.555 26.85c-1.319 0-2.455-.454-3.41-1.363-.91-.955-1.365-2.07-1.365-3.343 0-1.318.455-2.455 1.365-3.41.955-.955 2.091-1.432 3.41-1.432 1.273 0 2.365.477 3.274 1.432.91.955 1.364 2.092 1.364 3.41 0 1.274-.455 2.388-1.364 3.343-.91.909-2 1.364-3.274 1.364zM0 65.934l.682-9.48c1.364.045 2.637.045 3.82 0 1.227-.092 2.364-.183 3.41-.274a17.76 17.76 0 01-2.524-3.956c-.636-1.5-.954-3.183-.954-5.047 0-2.82.704-5.275 2.114-7.367 1.41-2.137 3.183-3.797 5.32-4.979 2.183-1.182 4.411-1.773 6.685-1.773 2.728 0 5.093.636 7.093 1.91 2.001 1.273 3.547 2.955 4.639 5.047a13.405 13.405 0 011.705 6.616c0 1.91-.319 3.66-.955 5.252-.637 1.592-1.478 3.001-2.524 4.23a123.063 123.063 0 008.185.272c1.728 0 2.956.455 3.683 1.364.773.864 1.16 1.956 1.16 3.274 0 1.41-.478 2.592-1.432 3.547-.955.91-2.32 1.364-4.093 1.364-3.365 0-6.639-.227-9.822-.682-3.183-.455-5.957-1.114-8.321-1.978-1.683.728-4.093 1.364-7.23 1.91-3.138.546-6.685.796-10.641.75zM13.846 47.86c0 1.137.319 2.205.955 3.206.637 1 1.524 1.932 2.66 2.796 1.637-.727 2.888-1.637 3.752-2.728.91-1.091 1.364-2.274 1.364-3.547 0-1.228-.387-2.433-1.16-3.615-.727-1.182-1.75-1.773-3.069-1.773-1.273 0-2.342.545-3.206 1.637-.864 1.091-1.296 2.432-1.296 4.024z"/><path style="-inkscape-stroke:none" d="M23.722.038A3.17 3.17 0 0021.75 1.13c-.457.558-.684 1.185-.828 1.805-.289 1.24-.266 2.553-.268 3.797-.002 1.244-.033 2.422-.193 3.076-.08.327-.186.492-.21.518-.023.025.072 0-.058.007l-4.615.262c-.078-.062-.254-.234-.467-.555-.46-.691-1.005-1.87-1.596-3.097-.59-1.227-1.224-2.514-2.107-3.572-.883-1.06-2.286-1.986-3.89-1.7-1.59.285-2.652 1.486-3.358 2.762S3.01 7.186 2.69 8.612c-.643 2.852-.759 5.556-.759 5.556l2.903.13s.118-2.51.69-5.048c.285-1.268.692-2.533 1.177-3.41.485-.876.953-1.242 1.326-1.308.362-.065.596.039 1.149.7.552.663 1.15 1.788 1.72 2.972.57 1.184 1.113 2.418 1.795 3.445.341.513.714.992 1.266 1.375.551.383 1.395.62 2.166.422l-.281.045 4.517-.258c.78-.044 1.557-.416 2.047-.957.49-.541.727-1.165.877-1.776.3-1.221.275-2.516.277-3.761.002-1.246.028-2.439.192-3.145.082-.353.195-.56.246-.62.05-.062-.008-.041.113-.058.609-.082 1.316.248 2.195 1.202.88.953 1.763 2.425 2.495 3.945 1.463 3.04 2.355 6.22 2.355 6.22l2.799-.779s-.931-3.365-2.537-6.7c-.803-1.669-1.766-3.344-2.975-4.655C27.234.838 25.612-.217 23.723.038z"/></g></svg>