<svg viewBox="0 0 32.023 26.851" height="101.483" width="121.031" xmlns="http://www.w3.org/2000/svg"><path style="-inkscape-stroke:none" d="M21.79.038a3.17 3.17 0 0 0-1.972 1.093c-.457.558-.684 1.185-.828 1.805-.288 1.24-.265 2.553-.268 3.797-.002 1.244-.033 2.422-.193 3.076-.08.327-.186.492-.209.518-.023.025.071 0-.058.007l-4.616.262c-.077-.062-.253-.234-.466-.555-.46-.691-1.006-1.87-1.596-3.097-.59-1.227-1.225-2.514-2.108-3.572-.882-1.06-2.286-1.986-3.89-1.7-1.59.285-2.651 1.486-3.358 2.762-.706 1.276-1.15 2.752-1.47 4.178C.116 11.464 0 14.168 0 14.168l2.902.13s.118-2.51.69-5.048c.285-1.268.692-2.533 1.177-3.41.485-.876.954-1.242 1.327-1.308.361-.065.596.039 1.148.7.552.663 1.15 1.788 1.72 2.972.57 1.184 1.113 2.418 1.796 3.445.34.513.714.992 1.265 1.375.552.383 1.396.62 2.166.422l-.281.045 4.518-.258c.78-.044 1.557-.416 2.046-.957.49-.541.728-1.165.877-1.776.3-1.221.276-2.516.278-3.761.002-1.246.027-2.439.191-3.145.082-.353.196-.56.246-.62.05-.062-.008-.041.114-.058.608-.082 1.316.248 2.195 1.202.879.953 1.762 2.425 2.494 3.945 1.464 3.04 2.355 6.22 2.355 6.22l2.8-.779s-.932-3.365-2.538-6.7c-.803-1.669-1.765-3.344-2.974-4.655C25.302.838 23.68-.217 21.79.038z" color="#000"/><path d="M22.623 26.85c-1.318 0-2.455-.454-3.41-1.363-.91-.955-1.364-2.07-1.364-3.343 0-1.318.455-2.455 1.364-3.41.955-.955 2.092-1.432 3.41-1.432 1.274 0 2.365.477 3.274 1.432.91.955 1.365 2.092 1.365 3.41 0 1.274-.455 2.388-1.365 3.343-.909.909-2 1.364-3.274 1.364zm-11.8-.067c-1.318 0-2.455-.455-3.41-1.365-.91-.955-1.364-2.069-1.364-3.342 0-1.319.455-2.455 1.364-3.41.955-.955 2.092-1.433 3.41-1.433 1.274 0 2.365.478 3.274 1.433.91.955 1.365 2.091 1.365 3.41 0 1.273-.455 2.387-1.365 3.342-.909.91-2 1.365-3.274 1.365z" style="line-height:0;-inkscape-font-specification:'Noto Sans Arabic UI Bold'" font-weight="700" font-size="10.583" font-family="Noto Sans Arabic UI"/></svg>