<svg viewBox="0 0 512 512" height="512" width="512" xmlns="http://www.w3.org/2000/svg"><g style="display:inline"><path style="display:inline;stroke:none;stroke-width:2.6636;stroke-linecap:butt;stroke-linejoin:miter;stroke-opacity:1" d="M196.181 28.607c-3.68.167-7.391.718-11.065 1.756C144.883 41.738 116.02 80.69 72.493 77.83 20.659 74.423 12.09 15.148 7.17 38.911c-23.09 111.51 52.226 75.572 52.226 75.572-93.088 59.388-63.979 199.255.016 247.01-17.338-156.185 61.853-242.034 61.853-242.034l.013-.019.018-.018s17.331-17.523 46.762-28.345c14.715-5.41 32.49-9.148 52.648-8.212 20.157.936 42.693 6.544 66.928 19.821 26.189 14.349 43.542 23.166 55.54 38.49 2.835 3.62 5.335 7.63 7.595 12.103 21.617-7.913 32.728-18.55 38.532-27.468 3.185-4.895 4.782-9.28 5.628-12.447.424-1.584.66-2.86.812-3.761.076-.451.13-.804.185-1.093.004-.02.012-.042.015-.062-.322-1.243-1.879-2.671-4.528-3.647-2.757-1.015-6.408-1.516-9.867-1.249-11.26.87-24.745 5.916-24.745 5.916l-.03.013-.032.01c-15.587 4.996-25.8 4.718-32.187 3.088-3.193-.815-5.423-1.968-6.867-2.942-1.444-.974-2.175-1.86-2.175-1.86l2.076-1.667s.39.51 1.59 1.319c1.199.809 3.135 1.827 6.034 2.567 5.799 1.48 15.477 1.84 30.715-3.043.183-.07 13.62-5.141 25.416-6.053 3.848-.298 7.796.228 10.99 1.404s5.843 3.022 6.339 5.837l.229 1.29-.442.086c-.03.178-.051.29-.091.528a42.522 42.522 0 0 1-.861 4.006c-.904 3.384-2.61 8.05-5.97 13.214-6.102 9.376-17.7 20.348-39.624 28.428 1.49 3.191 2.848 6.687 4.115 10.426 45.01 18.14 64.002 46.164 81.045 81.008l.044.089.031.096s3.993 12.676 7.965 28.129c3.972 15.453 7.948 33.61 7.866 45.003-.019 2.645.413 4.828.481 6.695.034.934-.004 1.835-.442 2.7-.439.865-1.35 1.514-2.385 1.759-5.254 1.242-9.722.56-13.331-1.205-3.61-1.764-6.352-4.561-8.412-7.46-4.12-5.796-5.598-12.142-5.598-12.142l-.01-.042-.009-.044s-2.942-17.303-10.508-30.806c-10.964-19.565-27.256-38.65-45.079-43.694l.029.624c1.617 5.719 5.044 12.485 9.133 20.034 4.78 8.828 10.214 18.635 13.838 29.02 3.623 10.383 5.44 21.383 2.864 32.503-2.577 11.121-9.553 22.274-23.172 32.931l-1.64-2.096c13.257-10.376 19.789-20.959 22.216-31.435 2.427-10.477.741-20.934-2.78-31.027-3.523-10.093-8.878-19.782-13.667-28.626-2.383-4.4-4.63-8.58-6.436-12.527.58 27.441-2.277 57.395-9.294 85.695-5.09 20.53-12.376 40.167-22.102 57.33 5.6 39.174-59.718 97.302-16.751 94.735 45.7-2.73 85.386-131.022 80.108-89.879-5.243 40.872 10.964 58.251 10.964 58.251l8.784-9.122s2.461-3.236 6.636-7.083c4.153-3.828 11.738-9.946 15.9-16.328 15.566-18.413 21.132-35.112 22.238-51.987 5.14.886 8.63 1.292 9.4 1.03 16.014-5.438 14.563-62.594.851-110.9-11.786-41.522-35.454-72.99-35.454-72.99 25.831-1.156 62.426 6.269 72.65-13.929-8.845-8.271-14.295 8.543-72.174-37.641-29.322-23.399-36.09-58.238-50.897-69.125-60.302-50.397-118.686-32.097-147.882-21.938-8.477-5.038-26.258-13.958-44.865-13.118Zm17.087 56.815c-16.755.166-31.644 3.564-44.271 8.207-28.84 10.604-45.724 27.671-45.753 27.7l-.013.008c-.174.189-78.404 84.945-61.083 240.109 3.254 9.192 13.032 23.607 27.606 38.398 14.629 14.847 34.07 30.141 56.547 41.375 44.953 22.467 101.851 28.832 157.639-16.731 25.854-21.116 42.78-55.876 52.192-93.84 7.65-30.858 10.269-63.746 8.886-93.083v.133c-.061-2.264-.231-5.075-.231-5.075s-.729-9.979-1.288-14.744c-2.513-21.414-5.575-37.268-9.669-49.757a214.74 214.74 0 0 0-18.382-6.3c-10.398-2.39-17.442-4.13-21.923-5.343-2.246-.608-3.85-1.081-4.945-1.45a14.6 14.6 0 0 1-1.298-.488 3.709 3.709 0 0 1-.47-.245c-.158-.098-.353-.147-.606-.624-.127-.238-.234-.698-.086-1.113.147-.416.438-.639.627-.747.376-.216.545-.197.715-.213.34-.033.639-.014 1.027.018.777.065 1.834.216 3.124.437 2.582.443 6.07 1.173 9.674 2.07 2.814.702 9.361 2.03 12.111 2.331.92.1 3.476-.028 5.796-.26 2.316-.231 4.677-.598 5.012-.687h.008c1.362-.421 2.669-.858 3.959-1.3-2.144-4.197-4.492-7.969-7.143-11.354-11.523-14.717-28.483-23.417-54.703-37.782-23.895-13.092-46.011-18.602-65.762-19.517a130.834 130.834 0 0 0-7.294-.133zm-20.983 45.526c1.245-.03 1.111.411 1.176 1.813.02-.076-.005.018-.014.161-.017.288-.014.824.016 1.522.059 1.396.218 3.472.468 6.02.5 5.093 1.357 12.092 2.463 19.594.445 3.017.96 6.132 1.483 9.226 4.398-7.352 9.443-14.279 15.347-20.575l1.987 1.862c-6.475 6.906-11.982 14.556-16.626 22.787 1.942 10.82 4.242 21.064 6.534 26.5.644 1.528 2.157 5.928 4.838 12.283 2.68 6.355 6.48 14.55 11.515 23.25 7.66 13.234 18.827 28.167 28.249 37.532 8.529 8.476 13.846 13.391 17.524 16.634.924-.247 1.814-.445 2.744-.702a787.273 787.273 0 0 1-10.313-31.097c-3.212-10.384-6.274-21.143-8.238-30.1-.982-4.48-1.691-8.506-2.003-11.841-.312-3.336-.3-5.943.484-7.874.119-.294.278-.596.59-.874.312-.279.835-.476 1.285-.442.901.066 1.297.555 1.686 1.006.776.903 1.497 2.236 2.388 4.04 1.78 3.608 4.061 9.001 6.776 15.045 5.429 12.088 12.661 26.76 20.432 34.166 8.153 7.772 14.462 13.187 19.865 17.14 2.542-.953 5.003-1.774 7.588-2.8l1.004 2.534c-2.003.795-3.904 1.418-5.882 2.17 10.81 7.328 18.233 8.717 30.84 12.142 4.11 1.117 10.83 1.263 14.182-1.363l1.64 2.096c-4.611 3.614-11.842 3.108-16.522 1.837-13.115-3.563-21.096-5.136-33.13-13.61-10.029 3.723-19.824 7.058-29.191 9.726.76 2.136 2.156 6.113 2.156 6.113l1.501 4.115-3.538-2.583s-2.308-1.74-6.994-5.87c-33.778 8.892-63.207 11.404-88.102 10.081.067.722.114 1.45.185 2.17 2.302 23.292 6.689 45.584 11.79 64.85l2.183-2.797c3.836-8.059 10.993-17.977 20.877-24.144 9.583-5.978 20.965-9.296 29.568-9.429 3.91-.06 7.246.536 9.577 1.842 11.488 6.43 8.764 55.257-5.571 74.659-35.449 47.974-83.298 10.862-83.298 10.862s-22.154-29.355-10.194-46.28c4.443-6.287 13.355-7.934 21.946-3.374 8.024 4.26 10.179 4.732 10.179 4.732l2.622-3.364c-5.364-19.84-9.99-43.03-12.387-67.29-.085-.856-.14-1.723-.219-2.582-15.863-1.028-29.889-3.544-42.034-6.818-18.516-4.991-32.55-11.694-42.433-17.451-2.338 8.198-3.062 14.28-3.062 14.28l-.05.445-.309.323s-.991.849-2.096.512c-1.106-.337-1.88-1.323-2.667-3.233-1.573-3.82-3.287-12.036-4.539-30.819-1.373-20.6 11.213-48.948 24.391-74.77-12.918 20.405-21.577 42.027-27.135 58.991-8.536 26.056-11.497 43.562-11.497 43.562l-3.435-.445s3.811-17.728 12.401-43.946c9.142-27.903 26.43-68.428 57.824-95.9h.003l1.753 2.005h-.003l-.047.05c-.08.07-15.588 13.658-26.238 34.34-13.587 26.388-26.69 55.968-25.358 75.936 1.244 18.67 3.035 26.81 4.34 29.981.227.548.17.33.34.588.714-5.108 4.432-27.27 18.246-43.26 6.518-7.545 24.23-31.248 42.977-60.594 13.377-20.94 19.864-42.35 20.047-42.969l2.554.757c-.263.89-6.747 22.342-20.356 43.645-18.807 29.438-36.448 53.079-43.206 60.901-7.024 8.13-11.397 18.382-14.077 26.946 9.684 5.709 23.618 12.449 42.339 17.495 11.872 3.2 25.586 5.668 41.093 6.704-3.713-43.84.08-90.603 20.245-126.875a470.387 470.387 0 0 1-2.003-12.403c-1.112-7.541-1.972-14.57-2.479-19.722-.253-2.576-.418-4.679-.48-6.167a18.62 18.62 0 0 1-.011-1.792 3.13 3.13 0 0 1 .096-.687c.035-.132.068-.285.247-.536.451-.574.538-.588 1.152-.593zm157.061 25.674a141.42 141.42 0 0 1-4.396 1.446l-.026.008-.023.008c-.998.265-3.054.524-5.442.762-1.603.16-2.906.15-4.263.172.418.096.473.122.902.22l.037.009.039.013c5.91 1.731 11.351 3.628 16.554 5.616-1.058-2.932-2.18-5.696-3.382-8.254zm7.817 12.834c3.816 12.395 6.667 27.877 9.041 48.108.596 5.075 1.016 10.354 1.343 15.722 19.467 4.992 36.226 25.121 47.539 45.31 7.862 14.032 10.772 31.446 10.795 31.583 0 0 1.415 5.92 5.176 11.211 1.88 2.646 4.326 5.1 7.413 6.61 3.088 1.509 6.827 2.12 11.55 1.004.508-.12.53-.188.621-.37.092-.18.183-.655.156-1.399-.054-1.488-.505-3.873-.484-6.81.078-10.739-3.83-28.945-7.782-44.321-3.94-15.324-7.873-27.812-7.9-27.898-16.663-34.051-34.65-60.928-77.468-78.75zm-160.573 7.749c-18.405 35.275-21.961 80.259-18.328 122.681 24.267 1.332 52.966-1.042 85.924-9.546-4.063-3.659-9.167-8.395-16.343-15.526-9.677-9.619-20.89-24.637-28.675-38.09-5.107-8.823-8.951-17.118-11.664-23.548-2.712-6.43-4.342-11.107-4.838-12.282-2.23-5.292-4.282-14.146-6.076-23.69zm55.712 33.615c-.19 1.272-.428 2.485-.216 4.75.295 3.159.985 7.104 1.953 11.517 1.936 8.828 4.982 19.54 8.181 29.883a835.248 835.248 0 0 0 10.342 31.216c8.82-2.51 18.04-5.634 27.458-9.086-5.242-3.935-11.265-9.12-18.783-16.285-8.427-8.033-15.566-22.854-21.023-35.004-2.728-6.076-5.021-11.49-6.734-14.96-.5-1.013-.796-1.4-1.178-2.031z"/></g></svg>