<svg viewBox="0 0 417.524 512" height="512" width="417.524" xmlns="http://www.w3.org/2000/svg"><g style="display:inline"><path style="display:inline;fill-opacity:1;stroke:none;stroke-width:16;stroke-linecap:butt;stroke-linejoin:miter;stroke-opacity:1" d="M256.994.008V.01c-22.88.226-43.21 4.89-60.451 11.261-39.376 14.553-62.428 37.973-62.467 38.012l-.017.012c-.239.26-107.053 116.57-83.403 329.5 4.444 12.614 17.795 32.396 37.694 52.693 19.973 20.374 46.518 41.36 77.207 56.776 61.378 30.83 139.067 39.568 215.238-22.957 35.3-28.977 58.409-76.682 71.26-128.78 12.85-52.097 15.454-108.542 10.058-154.748-6.3-53.953-14.944-82.761-30.677-102.957-15.733-20.195-38.89-32.134-74.69-51.847C324.12 9.009 293.923 1.446 266.956.19a176.733 176.733 0 0 0-9.962-.183Zm4.557 70.547 15.861 13.576-5.695 6.105c-22.775 24.411-32.967 46.735-37.18 72.508-3.932 24.057-2.282 51.618.516 85.283 45.208 1.93 93.926-1.847 162.01-29l7.634-3.045 8.139 22.13-7.232 2.884c-69.296 27.636-122.722 32.065-169.483 30.365 2.744 25.87 6.74 51.076 11.96 73.21 14.28-8.863 30.525-13.744 44.11-13.954h.002c6.229-.096 12.007.676 17.123 3.555 6.756 3.8 10.314 10.576 12.553 18.07 2.24 7.494 3.068 16.158 2.576 25.238-.983 18.16-7.143 38.259-21.64 51.446-28.729 26.131-54.566 28.302-72.215 22.248-16.335-5.603-25.418-17.02-26.734-18.754-.83-.762-10.459-9.654-18.756-22.2-4.33-6.545-8.295-14.022-10.084-22.216-1.79-8.194-1.096-17.59 4.443-25.469 8.584-12.208 25.812-14.8 40.275-7.084 7.01 3.74 10.668-.44 10.668-.44l.256-.214.196-.137c-6.433-24.712-11.943-51.841-15.16-81.463-20.61-1.346-40.958-2.758-57.932-7.357-27.768-7.523-48.733-17.879-62.844-26.434l-5.162-3.13 1.594-5.823c.545-1.993.855-2.23 1.267-3.043.413-.813.869-1.657 1.307-2.473.438-.815.859-1.6 1.152-2.173.294-.573.523-1.364.186-.256l3.02-9.9 8.82 5.415c13.114 8.056 27.522 16.476 53.976 23.643 12.487 3.383 33.392 4.823 52.625 6.094-2.696-33.207-4.28-61.904.205-88.612 4.91-29.237 17.35-56.125 42.414-82.99z" transform="translate(-47.238)"/></g></svg>