<svg xmlns="http://www.w3.org/2000/svg" width="1024" height="1024" viewBox="0 0 1024 1024"><defs><clipPath id="a"><path d="M0 1024h1024V0H0z"/></clipPath></defs><g transform="matrix(1.4682 0 0 -1.4682 -196.278 1166.74)" clip-path="url(#a)" font-weight="400" color="#000" font-family="sans-serif" white-space="normal"><path d="M220.828 111.956a9.5 9.5 0 0 0-5.97 1.832c-13.5 9.608-25.58 21.895-34.427 37.504-6.402 11.296-7.415 17.485-13.054 28.67-5.842 11.584-13.997 23.69-25.688 35.601a9.5 9.5 0 1 0 13.56 13.31c13.113-13.362 22.44-27.165 29.092-40.356a9.5 9.5 0 0 0 0-.002c6.421-12.736 7.334-18.526 12.622-27.856 7.305-12.89 17.265-23.103 28.91-31.39a9.5 9.5 0 0 0-5.045-17.313zM581.296 133.1a9.5 9.5 0 0 0-8.8 12.503 184.559 184.559 0 0 1 8.142 42 185.12 185.12 0 0 1-.815 36.125 9.5 9.5 0 1 0 18.863 2.28 204.14 204.14 0 0 0 .897-39.835 203.586 203.586 0 0 0-8.977-46.324 9.5 9.5 0 0 0-9.31-6.75zm-87.303 272.958a9.5 9.5 0 0 0-6.507 2.922 84.31 84.31 0 0 1-12.31 10.32 82.604 82.604 0 0 1-18.423 9.508 9.5 9.5 0 1 0 6.524 17.844 101.648 101.648 0 0 0 22.658-11.692v.002a103.266 103.266 0 0 0 15.082-12.644 9.5 9.5 0 0 0-7.024-16.26zm47.529-6.193a9.5 9.5 0 0 0-6.524 2.887c-.495.498-2.566 2.408-5.572 2.51a9.5 9.5 0 0 0-.002 0c-2.593.087-4.512-1.198-5.125-1.655a9.5 9.5 0 1 0-11.36 15.23c1.912 1.426 8.145 5.717 17.13 5.413 10.41-.352 16.896-6.59 18.39-8.09a9.5 9.5 0 0 0-6.937-16.295zm39.298 8.799a9.5 9.5 0 0 0-9.6 10.306 374.384 374.384 0 0 1-.835 62.881 9.5 9.5 0 1 0 18.91 1.848 393.43 393.43 0 0 0 .877-66.072 9.5 9.5 0 0 0-9.351-8.963zm-181.574 35.368a9.5 9.5 0 0 0-6.787 16.245l79.6 81.257a9.5 9.5 0 1 0 13.572-13.297l-79.597-81.257a9.5 9.5 0 0 0-6.788-2.948zm360.937 89.63c-3.59.049-7.833.49-12.735 1.639-9.803 2.297-22.628 7.173-41.048 16.775-21.937 11.436-26.423 16.402-58.07 36.635-20.664 13.21-32.7 20.001-40.682 25.32-3.991 2.66-7.128 4.997-9.766 8.102-2.638 3.104-4.363 7.06-5.098 10.66-3.31 16.213 5.744 31.396 17.614 44.004 11.87 12.607 27.523 23.21 42.92 29.418 24.682 9.95 47.967 7.781 78.847 5.068 16.312-1.434 26.403-2.446 38.237-7.902 33.014-15.225 45.695-46.967 47.66-51.965 11.079-28.202 13.265-70.243-13.145-97.524-3.487-3.603-15.97-15.859-35.924-19.517-2.285-.42-5.22-.762-8.81-.713zm.125 18.89c2.11-.036 3.675.222 5.258.512a9.5 9.5 0 0 0 .002 0c13.818 2.534 23.212 11.476 25.697 14.043a9.5 9.5 0 0 0 .002 0c18.846 19.468 18.034 54.642 9.11 77.362-1.53 3.89-12.53 29.944-37.93 41.658-9.077 4.185-15.695 4.802-31.946 6.23-30.88 2.713-50.122 4.28-70.078-3.765a9.5 9.5 0 0 0-.002 0c-12.448-5.018-26.482-14.509-36.19-24.819-9.706-10.31-14.118-20.869-12.83-27.18.287-1.4.285-1.366.96-2.16.674-.793 2.437-2.335 5.824-4.591 6.772-4.514 19.392-11.708 40.379-25.123 32.142-20.55 35.737-24.91 56.619-35.795 17.534-9.14 29.084-13.363 36.601-15.125 3.76-.881 6.414-1.21 8.524-1.246z" style="line-height:normal;font-variant-ligatures:normal;font-variant-position:normal;font-variant-caps:normal;font-variant-numeric:normal;font-variant-alternates:normal;font-feature-settings:normal;text-indent:0;text-align:start;text-decoration-line:none;text-decoration-style:solid;text-decoration-color:#000;text-transform:none;text-orientation:mixed;shape-padding:0;isolation:auto;mix-blend-mode:normal" overflow="visible"/><path d="M719.714 587.823a57.935 57.935 0 0 0-10.205.532c-13.525 1.882-27.527 8.982-33.897 22.97-4.066 8.931-4.426 18.973-2.13 28.23 2.295 9.258 7.463 18.274 16.709 23.02 8.505 4.367 17.678 3.13 24.847.475 7.17-2.655 13.231-6.682 18.024-9.775 7.41-4.783 20.208-12.508 22.24-27.94 1.321-10.028-2.09-19.524-8.504-26.312-7.075-7.49-16.906-10.805-27.084-11.2zm-1.055 19.123c6.36.415 11.938 2.596 14.326 5.124 2.165 2.291 3.953 7.182 3.479 10.783a9.5 9.5 0 0 0 0 .002c-.73 5.543-6.297 9.672-13.707 14.455-4.792 3.093-9.935 6.3-14.316 7.922-4.382 1.622-7.107 1.707-9.573.441-2.68-1.376-5.608-5.294-6.945-10.69-1.338-5.394-.867-11.723.982-15.785 2.897-6.36 10.403-10.795 19.223-12.023a32.303 32.303 0 0 1 6.531-.228zM429.755 655.7c-5.276.365-11.963 1.856-23.017 5.238-15.814 4.84-24.813 8.83-30.664 12.573-2.926 1.87-5.106 3.731-6.748 5.724-1.643 1.993-2.674 4.36-3.002 5.29-4.67 13.21 2.353 23.99 3.357 25.681a9.5 9.5 0 0 0 .002 0c7.95 13.374 22.611 15.434 26.408 16.018a9.5 9.5 0 0 0 0 .002c10.686 1.642 19.322-1.529 23.625-3.15a9.5 9.5 0 0 0 0-.003c6.1-2.3 25.888-9.189 31.479-29.308h-.002a41.7 41.7 0 0 0 1.049-17.373c-.935-6.162-3.467-13.02-9.75-17.586a9.5 9.5 0 0 0-.002-.002c-2.077-1.509-7.459-3.468-12.735-3.104zm1.848 18.871c.599.634 1.454 2.034 1.854 4.67.458 3.021.125 6.94-.569 9.436-2.655 9.556-13.774 14.319-19.875 16.619-4.084 1.54-8.29 3.031-14.035 2.148v.002c-3.798-.584-9.85-1.709-12.963-6.945v-.002c-.325-.548-2.713-6.118-1.803-9.352.146-.161.568-.65 2.098-1.629 3.388-2.166 11.1-5.856 25.986-10.412 10.407-3.184 16.28-4.279 18.768-4.45.315-.023.366-.056.54-.085z" style="line-height:normal;font-variant-ligatures:normal;font-variant-position:normal;font-variant-caps:normal;font-variant-numeric:normal;font-variant-alternates:normal;font-feature-settings:normal;text-indent:0;text-align:start;text-decoration-line:none;text-decoration-style:solid;text-decoration-color:#000;text-transform:none;text-orientation:mixed;shape-padding:0;isolation:auto;mix-blend-mode:normal" overflow="visible"/><path d="M444.668 630.203c-11.96-.022-25.91 1.693-44.268 3.889-10.72 1.282-14.69 2.317-22.972 4.605-8.283 2.29-21.714 6-53.871 13.225-10.528 2.366-18.014 3.89-24.426 6.287-6.413 2.398-12.302 6.634-15.52 12.608-5.678 10.54-3.566 22.092-.004 32.056 3.563 9.964 8.996 19.253 13.26 26.654 6.7 11.629 16.3 28.605 34.28 40.803 10.842 7.355 24.734 9.462 43.091 9.608 18.357.145 41.716-1.823 72.61-4.471 22.13-1.897 38.841-3.336 51.525-5.842 12.684-2.506 23.004-6.024 28.008-15.77a9.5 9.5 0 0 0 .002-.001c4.846-9.44 3.86-20.051.615-30.565-3.244-10.513-8.774-21.89-15.336-35.584a9.5 9.5 0 0 0 0-.002c-11.595-24.198-18.888-39.672-35.545-49.914-9.086-5.587-19.49-7.564-31.449-7.586zm-.035 19c10.033.019 16.077 1.417 21.533 4.772 11.54 7.096 16.766 17.741 28.361 41.94 6.562 13.693 11.764 24.711 14.315 32.976 2.55 8.264 2.42 12.812.636 16.285-.432.84-3.943 3.668-14.787 5.81-10.846 2.144-27.364 3.656-49.466 5.551-30.868 2.646-54 4.534-70.836 4.4-16.837-.133-26.842-2.44-32.575-6.33-13.77-9.341-21.785-22.938-28.484-34.566-4.264-7.4-9.108-15.947-11.832-23.566-2.724-7.62-2.91-13.397-1.16-16.647.992-1.841 1.366-2.295 5.45-3.822 4.082-1.527 11.323-3.162 21.935-5.547 32.413-7.283 46.473-11.156 54.765-13.447 8.293-2.291 9.982-2.834 20.168-4.053 18.357-2.195 31.943-3.774 41.977-3.756zM396.139 131.95c-39.25.062-84.085 7.191-122.694 21.198-44.124 16.007-81.617 41.186-88.937 78.734-3.587 18.399-1.212 44.273 14.867 63.549 5.173 6.2 11.434 10.656 19.168 14.002 7.735 3.346 17.034 6.027 30.723 10.197 40.006 12.187 63.103 20.095 79.984 24.186 16.881 4.09 28.862 3.962 41.473-.461 7.12-2.498 11.134-5.31 14.344-7.659 3.21-2.349 6.52-4.786 16.515-9.494 17.258-8.129 28.779-10.698 39.705-12.603 10.927-1.905 21.762-3.067 35.076-8.362 21.487-8.544 41.102-24.263 54.893-42.37 13.79-18.108 22.36-39.04 17.592-58.778-4.282-17.721-18.248-27.286-32.955-37.395-44.16-30.353-90.055-33.643-103.31-34.337a305.261 305.261 0 0 0-16.444-.407zm.05 19.012c5.276-.016 10.422.108 15.4.37 12.344.646 53.927 3.79 93.542 31.02 14.593 10.03 22.832 16.2 25.248 26.198 2.69 11.136-2.563 27.474-14.238 42.805-11.676 15.33-29.171 29.218-46.799 36.228-10.923 4.344-19.677 5.27-31.316 7.299-11.64 2.029-25.66 5.24-44.54 14.133-10.934 5.15-16.272 8.883-19.642 11.35-3.37 2.466-3.87 3.116-9.41 5.06-9.814 3.442-15.485 3.615-30.71-.074-15.223-3.69-38.685-11.64-78.923-23.897-13.768-4.194-22.806-6.902-28.715-9.459-5.91-2.556-8.602-4.517-12.121-8.736-10.94-13.115-13.353-34.687-10.809-47.74 5.194-26.64 35.539-49.553 76.768-64.51C316 157.922 359.262 151.07 396.19 150.962z" style="line-height:normal;font-variant-ligatures:normal;font-variant-position:normal;font-variant-caps:normal;font-variant-numeric:normal;font-variant-alternates:normal;font-feature-settings:normal;text-indent:0;text-align:start;text-decoration-line:none;text-decoration-style:solid;text-decoration-color:#000;text-transform:none;text-orientation:mixed;shape-padding:0;isolation:auto;mix-blend-mode:normal" overflow="visible"/><path d="M380.307 162.217c-37.999 1.293-65.97 13.593-79.127 19.551-2.522 1.143-20.813 9.533-38.523 21.246-8.856 5.857-17.568 12.476-24.268 19.994-6.7 7.519-12.213 16.743-10.25 27.424 1.547 8.42 7.858 13.959 15.34 18.688 7.481 4.729 17.252 9.362 30.119 15.54 18.015 8.65 31.532 15.166 49.033 19.237 60.61 14.095 112.013-13.715 122.348-19.515a9.5 9.5 0 0 0 .002 0c7.43-4.171 23.412-13.077 37.48-24.752 7.034-5.838 13.66-12.37 18.574-19.87 4.915-7.5 8.25-16.41 6.9-25.939-1.502-10.617-8.389-18.942-16.796-25.14-8.407-6.199-18.718-10.783-29.734-14.458-22.032-7.349-46.91-10.9-64.213-11.836a191.724 191.724 0 0 0-16.885-.17zm.646 18.977a175.5 175.5 0 0 1 15.213.166c15.617.845 39.596 4.339 59.227 10.887 9.815 3.274 18.537 7.352 24.47 11.726 5.934 4.375 8.697 8.533 9.26 12.51.506 3.57-.65 7.784-3.978 12.863-3.328 5.08-8.697 10.582-14.819 15.662-12.243 10.162-27.215 18.634-34.646 22.805v-.002c-9.243 5.188-55.903 29.869-108.744 17.58-15.259-3.549-27.098-9.21-45.113-17.86-12.868-6.178-22.4-10.813-28.192-14.474-5.792-3.66-6.726-5.632-6.805-6.058-.337-1.835.895-5.904 5.747-11.348 4.85-5.444 12.496-11.455 20.564-16.791 16.135-10.672 33.952-18.911 35.88-19.785 12.899-5.842 37.755-16.765 71.936-17.881z" style="line-height:normal;font-variant-ligatures:normal;font-variant-position:normal;font-variant-caps:normal;font-variant-numeric:normal;font-variant-alternates:normal;font-feature-settings:normal;text-indent:0;text-align:start;text-decoration-line:none;text-decoration-style:solid;text-decoration-color:#000;text-transform:none;text-orientation:mixed;shape-padding:0;isolation:auto;mix-blend-mode:normal" overflow="visible"/><path d="M412.8 167.613a9.5 9.5 0 0 0-4.273 1.147 1203.541 1203.541 0 0 1-62.84 30.672 1197.807 1197.807 0 0 1-108.691 42.937 9.5 9.5 0 1 0 6.11 17.992 1216.887 1216.887 0 0 0 110.415-43.62 1222.565 1222.565 0 0 0 63.832-31.155 9.5 9.5 0 0 0-4.553-17.973zm23.604 53.798a278.1 278.1 0 0 0-39.378 2.889c-54.961 7.985-95.354 30.648-117.76 45.672a9.5 9.5 0 1 0 10.582 15.781c20.972-14.062 58.7-35.21 109.908-42.65 34.725-5.045 64.282-2.14 85.064 1.705a9.5 9.5 0 1 0 3.456-18.684 281.743 281.743 0 0 0-51.872-4.713z" style="line-height:normal;font-variant-ligatures:normal;font-variant-position:normal;font-variant-caps:normal;font-variant-numeric:normal;font-variant-alternates:normal;font-feature-settings:normal;text-indent:0;text-align:start;text-decoration-line:none;text-decoration-style:solid;text-decoration-color:#000;text-transform:none;text-orientation:mixed;shape-padding:0;isolation:auto;mix-blend-mode:normal" overflow="visible"/><path d="M331.138 245.28a9.5 9.5 0 0 0-9.312 12.804l15.406 43.279a9.5 9.5 0 1 0 17.898-6.371l-15.406-43.28a9.5 9.5 0 0 0-8.586-6.433zm90.973-18.56a9.5 9.5 0 0 0-9.052 11.59l8.56 40.628a9.5 9.5 0 1 0 18.592-3.918l-8.559-40.629a9.5 9.5 0 0 0-9.54-7.672zm-49.611 4.423a9.5 9.5 0 0 0-8.53 13.338c7.132 16.783 14.266 33.564 21.398 50.346a9.5 9.5 0 1 0 17.486-7.432l-21.396-50.344a9.5 9.5 0 0 0-8.957-5.908zm-72.093-44.15a9.5 9.5 0 0 0-7.826 14.342c4.565 7.949 9.13 15.898 13.693 23.847a9.5 9.5 0 1 0 16.478-9.459l-13.695-23.85a9.5 9.5 0 0 0-8.65-4.88zm-41.46 25.607a9.5 9.5 0 0 0-8.53 13.935l8.559 16.78a9.5 9.5 0 1 0 16.926-8.63l-8.559-16.783a9.5 9.5 0 0 0-8.396-5.303zm80.541-42.403a9.5 9.5 0 0 0-9.033 13.004l9.416 24.733a9.5 9.5 0 1 0 17.756-6.762l-9.414-24.729a9.5 9.5 0 0 0-8.725-6.246z" style="line-height:normal;font-variant-ligatures:normal;font-variant-position:normal;font-variant-caps:normal;font-variant-numeric:normal;font-variant-alternates:normal;font-feature-settings:normal;text-indent:0;text-align:start;text-decoration-line:none;text-decoration-style:solid;text-decoration-color:#000;text-transform:none;text-orientation:mixed;shape-padding:0;isolation:auto;mix-blend-mode:normal" overflow="visible"/></g></svg>