<svg xmlns="http://www.w3.org/2000/svg" height="1024" width="1024"><g color="#000" font-weight="400" font-family="sans-serif" white-space="normal"><path d="M125.78 992.457a14.011 14.011 0 0 1-8.806-2.701c-19.908-14.17-37.721-32.288-50.767-55.307-9.442-16.659-10.936-25.786-19.252-42.28-8.615-17.083-20.64-34.934-37.88-52.5a14.011 14.011 0 1 1 19.997-19.627c19.337 19.704 33.091 40.06 42.901 59.512a14.011 14.011 0 0 1 0 .003c9.47 18.781 10.815 27.32 18.612 41.078 10.774 19.01 25.462 34.07 42.634 46.292a14.011 14.011 0 0 1-7.44 25.53zm531.579-31.179a14.011 14.011 0 0 1-12.976-18.44 272.168 272.168 0 0 0 12.005-61.937 272.995 272.995 0 0 0-1.201-53.273 14.011 14.011 0 1 1 27.817-3.361 301.042 301.042 0 0 1 1.322 58.742 300.226 300.226 0 0 1-13.237 68.314 14.011 14.011 0 0 1-13.73 9.955zm-128.745-402.53a14.011 14.011 0 0 1-9.597-4.309 124.33 124.33 0 0 0-18.151-15.22 121.816 121.816 0 0 0-27.17-14.02 14.011 14.011 0 1 1 9.62-26.314 149.9 149.9 0 0 1 33.414 17.24v-.002a152.286 152.286 0 0 1 22.242 18.647 14.011 14.011 0 0 1-10.358 23.978zm70.09 9.132a14.011 14.011 0 0 1-9.62-4.257c-.73-.734-3.785-3.551-8.217-3.701a14.011 14.011 0 0 1-.003 0c-3.824-.13-6.655 1.766-7.558 2.44a14.011 14.011 0 1 1-16.751-22.46c2.819-2.103 12.01-8.43 25.26-7.982 15.352.52 24.916 9.718 27.12 11.93a14.011 14.011 0 0 1-10.23 24.03zm57.954-12.975a14.011 14.011 0 0 1-14.16-15.2 551.506 551.506 0 0 0-1.23-92.73 14.011 14.011 0 1 1 27.887-2.724 580.188 580.188 0 0 1 1.293 97.436 14.011 14.011 0 0 1-13.79 13.218zm-267.766-52.158a14.011 14.011 0 0 1-10.01-23.955l117.386-119.83a14.011 14.011 0 1 1 20.015 19.608L398.9 498.4a14.011 14.011 0 0 1-10.01 4.347zm532.27-132.176c-5.293-.072-11.55-.722-18.78-2.416-14.457-3.389-33.37-10.58-60.534-24.739-32.349-16.864-38.964-24.187-85.636-54.025-30.472-19.48-48.222-29.496-59.992-37.34-5.886-3.922-10.512-7.368-14.402-11.947-3.89-4.579-6.433-10.41-7.517-15.72-4.882-23.91 8.47-46.3 25.974-64.893 17.505-18.592 40.589-34.229 63.294-43.382 36.399-14.675 70.737-11.475 116.276-7.474 24.054 2.114 38.936 3.606 56.386 11.653 48.687 22.452 67.388 69.261 70.284 76.632 16.338 41.59 19.563 103.587-19.384 143.817-5.143 5.314-23.551 23.388-52.976 28.783-3.371.618-7.7 1.123-12.993 1.051zm.184-27.858c3.112.054 5.42-.326 7.754-.754a14.011 14.011 0 0 1 .003 0c20.378-3.737 34.231-16.924 37.895-20.71a14.011 14.011 0 0 1 .003 0c27.792-28.708 26.595-80.579 13.433-114.084-2.255-5.738-18.476-44.158-55.934-61.433-13.385-6.172-23.146-7.081-47.11-9.188-45.538-4-73.915-6.31-103.343 5.553a14.011 14.011 0 0 1-.003 0c-18.357 7.4-39.054 21.396-53.369 36.6-14.315 15.204-20.82 30.776-18.92 40.082.422 2.066.42 2.014 1.414 3.185.995 1.17 3.595 3.444 8.59 6.772 9.987 6.656 28.597 17.264 59.546 37.048 47.399 30.304 52.701 36.733 83.495 52.787 25.858 13.479 42.89 19.706 53.976 22.305 5.543 1.299 9.458 1.784 12.57 1.837z" style="line-height:normal;font-variant-ligatures:normal;font-variant-position:normal;font-variant-caps:normal;font-variant-numeric:normal;font-variant-alternates:normal;font-feature-settings:normal;text-indent:0;text-align:start;text-decoration-line:none;text-decoration-style:solid;text-decoration-color:#000;text-transform:none;text-orientation:mixed;shape-padding:0;isolation:auto;mix-blend-mode:normal" overflow="visible"/><path d="M861.483 290.7c-5.004.194-10.063-.09-15.05-.784-19.945-2.776-40.593-13.247-49.986-33.875-5.998-13.17-6.528-27.979-3.143-41.63 3.385-13.652 11.006-26.948 24.64-33.948 12.544-6.439 26.07-4.615 36.643-.7 10.573 3.916 19.512 9.854 26.58 14.416 10.927 7.054 29.8 18.444 32.797 41.202 1.949 14.788-3.083 28.792-12.54 38.803-10.435 11.044-24.931 15.933-39.941 16.516zm-1.556-28.201c9.38-.611 17.605-3.827 21.127-7.555 3.193-3.38 5.83-10.593 5.13-15.902a14.011 14.011 0 0 1 0-.003c-1.077-8.175-9.286-14.263-20.214-21.317-7.067-4.561-14.65-9.29-21.112-11.682-6.461-2.393-10.48-2.517-14.116-.65-3.953 2.028-8.27 7.807-10.242 15.763-1.973 7.956-1.279 17.289 1.448 23.278 4.272 9.38 15.34 15.92 28.348 17.73 3.252.453 6.505.542 9.631.338zm-426.044-71.897c-7.78-.537-17.643-2.737-33.944-7.725-23.32-7.135-36.59-13.021-45.22-18.54-4.314-2.759-7.528-5.503-9.951-8.442-2.422-2.939-3.943-6.43-4.427-7.8-6.885-19.482 3.47-35.378 4.951-37.872a14.011 14.011 0 0 1 .003 0c11.723-19.723 33.345-22.76 38.944-23.621a14.011 14.011 0 0 1 0-.003c15.758-2.423 28.493 2.254 34.84 4.646a14.011 14.011 0 0 1 0 .003c8.995 3.391 38.176 13.55 46.42 43.22h-.002a61.495 61.495 0 0 1 1.547 25.62c-1.38 9.088-5.112 19.2-14.379 25.935a14.011 14.011 0 0 1-.003.003c-3.061 2.224-10.999 5.114-18.779 4.576zm2.725-27.829c.883-.934 2.143-3 2.733-6.886.676-4.456.185-10.235-.838-13.915-3.916-14.093-20.313-21.116-29.31-24.508-6.023-2.27-12.226-4.47-20.697-3.168v-.003c-5.602.861-14.525 2.52-19.116 10.242v.003c-.48.808-4 9.021-2.659 13.79.215.239.837.96 3.094 2.403 4.995 3.195 16.367 8.637 38.322 15.354 15.346 4.696 24.008 6.311 27.676 6.564.464.033.54.082.795.124z" style="line-height:normal;font-variant-ligatures:normal;font-variant-position:normal;font-variant-caps:normal;font-variant-numeric:normal;font-variant-alternates:normal;font-feature-settings:normal;text-indent:0;text-align:start;text-decoration-line:none;text-decoration-style:solid;text-decoration-color:#000;text-transform:none;text-orientation:mixed;shape-padding:0;isolation:auto;mix-blend-mode:normal" overflow="visible"/><path d="M455.875 228.202c-17.636.033-38.21-2.497-65.281-5.734-15.81-1.891-21.663-3.417-33.878-6.792s-32.022-8.846-79.443-19.502c-15.525-3.489-26.564-5.735-36.02-9.272-9.457-3.536-18.142-9.783-22.887-18.592-8.374-15.544-5.26-32.58-.006-47.273 5.254-14.694 13.265-28.393 19.554-39.307 9.88-17.149 24.036-42.183 50.551-60.172 15.99-10.846 36.477-13.953 63.548-14.168 27.07-.214 61.518 2.689 107.076 6.593 32.637 2.798 57.28 4.92 75.984 8.615 18.705 3.696 33.923 8.884 41.303 23.255a14.011 14.011 0 0 1 .003.003c7.147 13.92 5.692 29.569.907 45.073-4.784 15.505-12.94 32.282-22.616 52.476a14.011 14.011 0 0 1 0 .003c-17.099 35.684-27.853 58.504-52.417 73.608-13.4 8.239-28.742 11.154-46.378 11.186zm-.052-28.019c14.796-.027 23.708-2.089 31.755-7.036 17.019-10.465 24.725-26.164 41.824-61.848 9.676-20.194 17.348-36.442 21.11-48.63 3.76-12.188 3.567-18.895.938-24.016-.637-1.238-5.815-5.409-21.806-8.569-15.996-3.16-40.355-5.391-72.949-8.185-45.52-3.902-79.632-6.686-104.46-6.49-24.83.197-39.584 3.6-48.038 9.335-20.306 13.777-32.127 33.828-42.005 50.975-6.289 10.914-13.431 23.518-17.449 34.753-4.017 11.236-4.292 19.757-1.71 24.549 1.462 2.716 2.014 3.385 8.035 5.636 6.021 2.252 16.7 4.664 32.348 8.18 47.8 10.74 68.534 16.452 80.763 19.83 12.229 3.38 14.72 4.18 29.741 5.977 27.071 3.238 47.107 5.566 61.903 5.54zM384.31 962.972c-57.881-.09-124-10.605-180.936-31.26-65.07-23.605-120.36-60.736-131.155-116.108-5.29-27.133-1.788-65.29 21.924-93.715 7.628-9.144 16.861-15.714 28.267-20.649 11.407-4.935 25.12-8.888 45.307-15.038 58.997-17.972 93.058-29.634 117.952-35.666 24.894-6.032 42.562-5.844 61.16.68 10.5 3.683 16.418 7.829 21.152 11.293 4.734 3.465 9.616 7.058 24.355 14.001 25.45 11.988 42.44 15.777 58.553 18.586 16.114 2.81 32.093 4.523 51.727 12.33 31.686 12.601 60.613 35.782 80.95 62.485 20.336 26.704 32.974 57.572 25.942 86.679-6.315 26.133-26.91 40.238-48.599 55.145-65.12 44.762-132.803 49.613-152.35 50.638-7.883.413-15.981.612-24.25.599zm.074-28.036c7.78.022 15.368-.16 22.708-.545 18.205-.954 79.527-5.59 137.947-45.747 21.52-14.79 33.67-23.888 37.233-38.633 3.968-16.423-3.779-40.516-20.997-63.124-17.218-22.608-43.019-43.088-69.014-53.426-16.108-6.405-29.018-7.77-46.182-10.763-17.164-2.992-37.839-7.727-65.681-20.842-16.126-7.595-23.997-13.1-28.967-16.737-4.97-3.637-5.706-4.596-13.877-7.463-14.473-5.076-22.835-5.33-45.286.11s-57.05 17.164-116.389 35.24c-20.303 6.185-33.63 10.179-42.345 13.949-8.715 3.77-12.685 6.661-17.875 12.883-16.134 19.34-19.692 51.153-15.94 70.403 7.66 39.285 52.409 73.075 113.21 95.132 53.2 19.3 116.998 29.402 171.455 29.563z" style="line-height:normal;font-variant-ligatures:normal;font-variant-position:normal;font-variant-caps:normal;font-variant-numeric:normal;font-variant-alternates:normal;font-feature-settings:normal;text-indent:0;text-align:start;text-decoration-line:none;text-decoration-style:solid;text-decoration-color:#000;text-transform:none;text-orientation:mixed;shape-padding:0;isolation:auto;mix-blend-mode:normal" overflow="visible"/><path d="M360.962 918.337c-56.036-1.906-97.287-20.044-116.688-28.831-3.72-1.685-30.693-14.058-56.81-31.332-13.059-8.636-25.907-18.398-35.787-29.485-9.88-11.087-18.011-24.69-15.116-40.441 2.281-12.416 11.588-20.585 22.622-27.559 11.033-6.973 25.441-13.806 44.416-22.918 26.567-12.756 46.5-22.364 72.309-28.368 89.38-20.786 165.184 20.226 180.425 28.78a14.011 14.011 0 0 1 .003 0c10.957 6.15 34.526 19.283 55.272 36.501 10.373 8.61 20.144 18.24 27.391 29.301 7.248 11.061 12.165 24.202 10.176 38.253-2.216 15.657-12.372 27.934-24.77 37.075-12.398 9.14-27.604 15.9-43.849 21.32-32.49 10.837-69.178 16.073-94.694 17.454-8.588.464-16.895.523-24.9.25zm.953-27.984c7.201.235 14.683.174 22.435-.245 23.029-1.246 58.391-6.398 87.34-16.055 14.475-4.828 27.337-10.841 36.087-17.293 8.75-6.451 12.825-12.583 13.656-18.448.745-5.263-.96-11.48-5.867-18.97-4.908-7.49-12.825-15.603-21.853-23.096-18.056-14.986-40.135-27.479-51.093-33.63v.003c-13.63-7.65-82.44-44.047-160.364-25.925-22.502 5.234-39.962 13.58-66.528 26.337-18.975 9.112-33.032 15.947-41.574 21.345-8.541 5.4-9.92 8.307-10.035 8.935-.497 2.706 1.32 8.706 8.474 16.734 7.154 8.028 18.429 16.893 30.326 24.762 23.795 15.737 50.069 27.889 52.914 29.177 19.02 8.614 55.675 24.723 106.082 26.369z" style="line-height:normal;font-variant-ligatures:normal;font-variant-position:normal;font-variant-caps:normal;font-variant-numeric:normal;font-variant-alternates:normal;font-feature-settings:normal;text-indent:0;text-align:start;text-decoration-line:none;text-decoration-style:solid;text-decoration-color:#000;text-transform:none;text-orientation:mixed;shape-padding:0;isolation:auto;mix-blend-mode:normal" overflow="visible"/><path d="M408.88 910.38a14.011 14.011 0 0 1-6.302-1.69 1774.853 1774.853 0 0 0-92.67-45.232 1766.396 1766.396 0 0 0-160.286-63.32 14.011 14.011 0 1 1 9.01-26.533 1794.533 1794.533 0 0 1 162.83 64.328 1802.907 1802.907 0 0 1 94.132 45.943 14.011 14.011 0 0 1-6.714 26.504zm34.809-79.335a410.113 410.113 0 0 1-58.072-4.26c-81.05-11.775-140.618-45.197-173.66-67.352a14.011 14.011 0 1 1 15.606-23.273c30.927 20.738 86.566 51.926 162.08 62.896 51.21 7.44 94.796 3.156 125.444-2.514a14.011 14.011 0 1 1 5.095 27.552 415.485 415.485 0 0 1-76.493 6.95z" style="line-height:normal;font-variant-ligatures:normal;font-variant-position:normal;font-variant-caps:normal;font-variant-numeric:normal;font-variant-alternates:normal;font-feature-settings:normal;text-indent:0;text-align:start;text-decoration-line:none;text-decoration-style:solid;text-decoration-color:#000;text-transform:none;text-orientation:mixed;shape-padding:0;isolation:auto;mix-blend-mode:normal" overflow="visible"/><path d="M288.453 795.847a14.011 14.011 0 0 1-13.733-18.883l22.72-63.824a14.011 14.011 0 1 1 26.394 9.396c-7.572 21.274-15.147 42.55-22.72 63.823a14.011 14.011 0 0 1-12.66 9.488zm134.157 27.37a14.011 14.011 0 0 1-13.35-17.091l12.625-59.916a14.011 14.011 0 1 1 27.417 5.778l-12.621 59.915a14.011 14.011 0 0 1-14.07 11.314zm-73.16-6.524a14.011 14.011 0 0 1-12.58-19.67c10.517-24.748 21.038-49.496 31.556-74.244a14.011 14.011 0 1 1 25.787 10.96l-31.554 74.241a14.011 14.011 0 0 1-13.209 8.713zm-106.316 65.108a14.011 14.011 0 0 1-11.541-21.15l20.193-35.167a14.011 14.011 0 1 1 24.3 13.949c-6.73 11.725-13.464 23.448-20.196 35.17a14.011 14.011 0 0 1-12.756 7.198zm-61.141-37.761a14.011 14.011 0 0 1-12.578-20.55l12.62-24.748a14.011 14.011 0 1 1 24.961 12.728l-12.621 24.75a14.011 14.011 0 0 1-12.382 7.82zm118.774 62.53a14.011 14.011 0 0 1-13.321-19.177c4.628-12.158 9.256-24.315 13.886-36.473a14.011 14.011 0 1 1 26.184 9.971l-13.883 36.467a14.011 14.011 0 0 1-12.866 9.211z" style="line-height:normal;font-variant-ligatures:normal;font-variant-position:normal;font-variant-caps:normal;font-variant-numeric:normal;font-variant-alternates:normal;font-feature-settings:normal;text-indent:0;text-align:start;text-decoration-line:none;text-decoration-style:solid;text-decoration-color:#000;text-transform:none;text-orientation:mixed;shape-padding:0;isolation:auto;mix-blend-mode:normal" overflow="visible"/></g></svg>