<svg xmlns="http://www.w3.org/2000/svg" width="1024" height="1024" viewBox="0 0 270.93334 270.93334"><path d="M264.773 84.009l-6.721-36.05c-.571-2.267-2.002-7.936-4.292-17.007-2.243 2.603-20.187 23.445-22.429 26.054-1.094 22.693-1.773 36.88-2.05 42.548-.493 10.232-6.077 19.477-14.794 24.485a91.258 91.258 0 0 1-2.982 1.617c-.354.18-1.28.367-2.759.571-7.845 1.04-15.39-3.48-18.34-11-2.14-5.453-7.49-19.075-16.04-40.872L152.42 86.257l8.296 29.528a35.847 35.847 0 0 1-.18 20.042c-.596 1.984.174-.583-.53 1.768a31.487 31.487 0 0 1-8.59 13.898c-2.026 1.9.788-.74-.547.511-6.234 5.837-14.036 9.624-22.398 10.857-4.87.715-.818.12-4.232.625-12.48 1.84-24.99-3.156-32.979-13.16-.794-.997-2.777-3.486-5.951-7.46-2.736-3.714-24.611-33.429-27.346-37.144-.595.95-.968 1.551-1.118 1.785-8.254 13.25-12.889 28.525-13.412 44.239 0 .017 0 .043-.006.09 2.922 8.223 4.755 13.37 5.483 15.42a29.672 29.672 0 0 1 1.382 14.36c-.282 1.882.174-1.142-.06.421-.812 5.41-4.791 9.757-10.009 10.935-7.622 1.725-17.686 4.01-24.274 5.494-7.695 1.744-12.63 9.456-11.121 17.385.613 3.21 2.14 11.26 4.592 24.13 3.289-.733 19.748-4.412 49.366-11.03 25.23-5.591 39.249-8.7 42.05-9.324 5.248-1.25 8.524-2.038 9.835-2.357l25.452-5.056c4.761-.75-1.034.163 1.912-.306a193.374 193.374 0 0 0 42.489-11.818c3.829-1.545-2.35.955 2.212-.896a252.005 252.005 0 0 0 32.714-16.11c1.268-.746 4.46-2.61 9.558-5.597 4.863-4.196 7.911-6.817 9.125-7.87a118.991 118.991 0 0 0 23.722-27.928c1.502-2.453-.926 1.508 1.274-2.086 4.088-6.667 6.366-14.326 6.613-22.2.084-2.7.3-9.45.637-20.253-.86-7.01-1.395-11.392-1.605-13.141z"/></svg>